HIERARCHY
ROOT RootJoint
{
    OFFSET   0.000000   0.000000   0.000000
    CHANNELS 6 Xposition Yposition Zposition Xrotation Yrotation Zrotation
    JOINT pelvis_lowerback
    {
        OFFSET   0.000000   0.093605   0.000000
        CHANNELS 3 Xrotation Yrotation Zrotation
        JOINT lowerback_torso
        {
            OFFSET   0.000000   0.100000   0.000000
            CHANNELS 3 Xrotation Yrotation Zrotation
            JOINT torso_head
            {
                OFFSET   0.000000   0.282350   0.000000
                CHANNELS 3 Xrotation Yrotation Zrotation
                End Site
                {
                    OFFSET   0.000000   0.192650   0.000000
                }
            }
            JOINT rTorso_Clavicle
            {
                OFFSET  -0.001000   0.157500   0.000000
                CHANNELS 3 Xrotation Yrotation Zrotation
                JOINT rShoulder
                {
                    OFFSET  -0.117647   0.000000   0.000000
                    CHANNELS 3 Xrotation Yrotation Zrotation
                    JOINT rElbow
                    {
                        OFFSET  -0.245000   0.000000   0.000000
                        CHANNELS 3 Xrotation Yrotation Zrotation
                        JOINT rWrist
                        {
                            OFFSET  -0.240000   0.000000   0.000000
                            CHANNELS 3 Xrotation Yrotation Zrotation
                            End Site
                            {
                                OFFSET  -0.116353  -0.002500   0.000000
                            }
                        }
                    }
                }
            }
            JOINT lTorso_Clavicle
            {
                OFFSET   0.001000   0.157500   0.000000
                CHANNELS 3 Xrotation Yrotation Zrotation
                JOINT lShoulder
                {
                    OFFSET   0.117647   0.000000   0.000000
                    CHANNELS 3 Xrotation Yrotation Zrotation
                    JOINT lElbow
                    {
                        OFFSET   0.245000   0.000000   0.000000
                        CHANNELS 3 Xrotation Yrotation Zrotation
                        JOINT lWrist
                        {
                            OFFSET   0.240000   0.000000   0.000000
                            CHANNELS 3 Xrotation Yrotation Zrotation
                            End Site
                            {
                                OFFSET   0.116353  -0.002500   0.000000
                            }
                        }
                    }
                }
            }
        }
    }
    JOINT rHip
    {
        OFFSET  -0.100000  -0.051395   0.000000
        CHANNELS 3 Xrotation Yrotation Zrotation
        JOINT rKnee
        {
            OFFSET   0.000000  -0.410000   0.000000
            CHANNELS 3 Xrotation Yrotation Zrotation
            JOINT rAnkle
            {
                OFFSET   0.000000  -0.390000   0.000000
                CHANNELS 3 Xrotation Yrotation Zrotation
                JOINT rToeJoint
                {
                    OFFSET   0.000000  -0.050000   0.130000
                    CHANNELS 3 Xrotation Yrotation Zrotation
                    End Site
                    {
                        OFFSET  -0.010000   0.002000   0.060000
                    }
                }
            }
        }
    }
    JOINT lHip
    {
        OFFSET   0.100000  -0.051395   0.000000
        CHANNELS 3 Xrotation Yrotation Zrotation
        JOINT lKnee
        {
            OFFSET   0.000000  -0.410000   0.000000
            CHANNELS 3 Xrotation Yrotation Zrotation
            JOINT lAnkle
            {
                OFFSET   0.000000  -0.390000   0.000000
                CHANNELS 3 Xrotation Yrotation Zrotation
                JOINT lToeJoint
                {
                    OFFSET   0.000000  -0.050000   0.130000
                    CHANNELS 3 Xrotation Yrotation Zrotation
                    End Site
                    {
                        OFFSET   0.010000   0.002000   0.060000
                    }
                }
            }
        }
    }
}
MOTION
Frames: 10
Frame Time:   0.008333
 -2.344096   0.921127   3.939403   2.379830  12.098415  -0.992261   8.593522   0.207806   1.387850   6.582020  -1.557733   1.514117  -1.004395  -1.202283  -1.274470   3.520630  10.601493   0.263591   5.448949  16.410756  47.805463  -0.001507  17.888562  -0.001842   3.505263   1.562609   2.837872   2.688731 -11.242782  -0.042882   7.945677 -18.624873 -51.315989  -0.000172 -18.663991  -0.002344   2.269168  -1.618529  -0.533243  -2.959897  -4.209205  -7.046838   5.038883  -0.000010   0.000321  -0.113201  -6.624005   2.928804  -5.426765   0.000076   0.000007  -0.352658   0.108721   4.583803   0.329452  -0.000038   0.000347  -2.470338   5.177008   1.646020   0.625361  -0.000020   0.000000
 -2.344005   0.921185   3.939178   2.351879  11.894157  -1.006141   8.701053   0.183033   1.424871   6.677084  -1.596812   1.566579  -0.946753  -1.177420  -1.270253   3.472619  10.879128   0.267375   5.270463  16.655993  47.957260  -0.002092  17.573879  -0.001127   3.379320   1.511239   2.959339   2.684866 -11.605847  -0.051095   7.941896 -19.063528 -51.238080  -0.000318 -18.505270  -0.003276   2.284462  -1.585440  -0.633862  -2.995254  -4.160426  -7.032636   5.034781  -0.000008   0.000263  -0.017942  -6.460945   2.926323  -5.502946   0.000057   0.000006  -0.280868   0.213071   4.592187   0.274068  -0.000037   0.000328  -2.463805   5.280387   1.703019   0.609759  -0.000011   0.000000
 -2.343934   0.921243   3.938946   2.322958  11.708220  -1.021150   8.806225   0.160392   1.458275   6.768667  -1.633977   1.618772  -0.891126  -1.153803  -1.266739   3.417409  11.168356   0.295654   5.086575  16.904435  48.120965  -0.002532  17.284447  -0.000547   3.265014   1.444984   3.131632   2.662559 -11.976169  -0.072400   7.918183 -19.491908 -51.171343  -0.000413 -18.362931  -0.003813   2.305940  -1.549693  -0.756915  -3.029919  -4.117312  -7.016325   5.038274  -0.000007   0.000206   0.073384  -6.310403   2.923999  -5.581576   0.000042   0.000005  -0.212543   0.308561   4.602959   0.220583  -0.000034   0.000306  -2.455023   5.374057   1.757703   0.599035  -0.000005   0.000000
 -2.343867   0.921297   3.938726   2.297095  11.536649  -1.035744   8.905695   0.139564   1.488625   6.851845  -1.668722   1.669335  -0.838831  -1.131638  -1.264156   3.357876  11.454033   0.341176   4.902243  17.147782  48.288591  -0.002814  17.020049  -0.000121   3.154971   1.404809   3.322404   2.629432 -12.337604  -0.103913   7.882365 -19.902866 -51.115357  -0.000465 -18.236275  -0.004044   2.326680  -1.542692  -0.880433  -3.063928  -4.077991  -7.000843   5.042651  -0.000005   0.000159   0.159104  -6.170857   2.922248  -5.656314   0.000031   0.000004  -0.149741   0.396716   4.613062   0.168991  -0.000032   0.000284  -2.445449   5.460499   1.809018   0.591751  -0.000002  -0.000000
 -2.343795   0.921328   3.938542   2.270054  11.370799  -1.054356   8.999242   0.122935   1.520864   6.928192  -1.698994   1.719113  -0.789735  -1.110773  -1.262077   3.296726  11.730802   0.395446   4.721349  17.382251  48.454785  -0.002955  16.777500   0.000171   3.048499   1.389542   3.519993   2.591828 -12.683636  -0.141944   7.840723 -20.293328 -51.069113  -0.000487 -18.122251  -0.004072   2.346137  -1.559565  -1.002474  -3.091375  -4.039004  -6.980862   5.046706  -0.000004   0.000123   0.233647  -6.037628   2.922196  -5.719890   0.000024   0.000004  -0.096713   0.477451   4.627037   0.133482  -0.000029   0.000254  -2.384069   5.539428   1.865350   0.257072   0.000137   0.000028
 -2.343717   0.921376   3.938379   2.249115  11.220179  -1.065339   9.084742   0.105726   1.545496   6.996610  -1.728141   1.764969  -0.744812  -1.091401  -1.260299   3.235981  11.995734   0.457141   4.546186  17.605803  48.617640  -0.002994  16.553889   0.000372   2.945415   1.391397   3.716375   2.551635 -13.013247  -0.184635   7.796117 -20.662434 -51.029083  -0.000491 -18.018450  -0.003968   2.364480  -1.591542  -1.119416  -3.120627  -4.004365  -6.970393   5.049838  -0.000003   0.000095   0.307141  -5.915413   2.921103  -5.785398   0.000017   0.000003  -0.040846   0.555187   4.632625   0.089636  -0.000027   0.000233  -2.390534   5.615996   1.906584   0.319779   0.000095   0.000023
 -2.343635   0.921421   3.938235   2.232330  11.082368  -1.076841   9.163711   0.089939   1.570918   7.058406  -1.755210   1.808626  -0.703251  -1.073288  -1.258825   3.176830  12.247076   0.519326   4.378475  17.817283  48.774254  -0.002952  16.347183   0.000504   2.845818   1.405048   3.910474   2.511096 -13.324985  -0.228669   7.750540 -21.010333 -50.995208  -0.000481 -17.923694  -0.003779   2.381647  -1.634222  -1.233467  -3.149598  -3.973381  -6.960306   5.052612  -0.000003   0.000073   0.376431  -5.802915   2.920001  -5.848520   0.000011   0.000003   0.011216   0.626500   4.637898   0.043141  -0.000025   0.000214  -2.392305   5.685976   1.945910   0.370923   0.000065   0.000019
 -2.343583   0.921457   3.938075   2.181406  10.975829  -1.077616   9.247300   0.076236   1.590279   7.148754  -1.783002   1.848616  -0.640838  -1.051171  -1.266892   3.136215  12.570352   0.522204   4.250125  18.192790  48.995179  -0.003447  16.027302   0.001453   2.744097   1.346417   4.126093   2.503739 -13.705624  -0.242232   7.722133 -21.523186 -50.934164  -0.000588 -17.764054  -0.004314   2.395629  -1.595182  -1.367865  -3.154472  -3.965500  -6.954243   5.087605  -0.000003   0.000027   0.415196  -5.697779   2.904839  -5.899214   0.000002   0.000002   0.109704   0.692571   4.639786  -0.039389  -0.000026   0.000204  -2.371148   5.731596   1.987746   0.414159   0.000040   0.000016
 -2.343553   0.921493   3.937881   2.120830  10.892124  -1.076911   9.338219   0.064034   1.607644   7.235196  -1.809953   1.886468  -0.580720  -1.030040  -1.275841   3.085947  12.902459   0.543576   4.111019  18.562402  49.220111  -0.003742  15.733916   0.002140   2.653346   1.279132   4.384461   2.474925 -14.093569  -0.265813   7.672833 -22.021962 -50.881589  -0.000634 -17.622885  -0.004520   2.415178  -1.566779  -1.515085  -3.151980  -3.966061  -6.947964   5.132849  -0.000003  -0.000015   0.448509  -5.606327   2.892013  -5.950751  -0.000004   0.000001   0.168194   0.743465   4.643760  -0.031511  -0.000021   0.000161  -2.389112   5.765676   2.025120   0.449597   0.000023   0.000013
 -2.343525   0.921526   3.937704   2.059675  10.813755  -1.075744   9.421367   0.057034   1.621965   7.313851  -1.832418   1.921422  -0.523496  -1.009992  -1.285114   3.030099  13.228219   0.580165   3.967166  18.918280  49.442950  -0.003855  15.465844   0.002562   2.565675   1.238474   4.652441   2.436241 -14.470056  -0.299472   7.613500 -22.497960 -50.838730  -0.000640 -17.497200  -0.004497   2.433637  -1.568848  -1.657496  -3.146372  -3.966372  -6.941979   5.178580  -0.000004  -0.000046   0.478312  -5.520643   2.880761  -6.000271  -0.000008   0.000001   0.228345   0.791552   4.647770  -0.025209  -0.000016   0.000127  -2.404997   5.797264   2.059515   0.478758   0.000012   0.000010
